<svg xmlns="http://www.w3.org/2000/svg" viewBox="0 0 54 69"><rect fill="#fff" width="54" height="69"/><path fill="#2a2a2a" d="M29.25 11.1h2.25v2.22h-2.25zM31.5 2.22h2.25v8.88h-2.25z"/><path fill="#d4d42a" d="M6.75 37.74h40.5v15.54h-40.5zM9 33.3h38.25v4.44h-38.25zM9 53.28h38.25v4.44h-38.25zM9 57.72h36v2.22h-36zM11.25 28.86h33.75v4.44h-33.75zM11.25 59.94h31.5v2.22h-31.5zM11.25 62.16h29.25v2.22h-29.25zM13.5 24.42h29.25v4.44h-29.25zM13.5 64.38h24.75v2.22h-24.75zM15.75 17.76h24.75v6.66h-24.75zM18 15.54h20.25v2.22h-20.25zM18 66.6h15.75v2.22h-15.75zM20.25 13.32h18v2.22h-18zM22.5 11.1h6.75v2.22h-6.75zM24.75 8.88h6.75v2.22h-6.75zM31.5 11.1h4.5v2.22h-4.5zM40.5 22.2h2.25v2.22h-2.25zM42.75 26.64h2.25v2.22h-2.25zM47.25 39.96h2.25v13.32h-2.25z"/></svg>