<svg xmlns="http://www.w3.org/2000/svg" viewBox="0 0 32 32" width="32" height="32">
<rect width="32" height="32" rx="4" fill="#1a1a1a"/>
<rect x="20" y="4" width="2" height="1" fill="#543018"/>
<g fill="#603018">
<rect x="21" y="5" width="1" height="1"/>
<rect x="21" y="8" width="1" height="1"/>
</g>
<rect x="22" y="5" width="1" height="1" fill="#603c24"/>
<g fill="#603c18">
<rect x="22" y="6" width="1" height="1"/>
<rect x="21" y="7" width="1" height="1"/>
</g>
<g fill="#246c24">
<rect x="24" y="6" width="3" height="1"/>
<rect x="23" y="7" width="1" height="1"/>
<rect x="26" y="7" width="1" height="1"/>
<rect x="22" y="8" width="1" height="1"/>
<rect x="25" y="8" width="1" height="1"/>
<rect x="22" y="9" width="3" height="1"/>
</g>
<rect x="22" y="7" width="1" height="1" fill="#482418"/>
<rect x="24" y="7" width="1" height="1" fill="#78b460"/>
<rect x="25" y="7" width="1" height="1" fill="#489030"/>
<g fill="#ccf000">
<rect x="17" y="8" width="3" height="1"/>
<rect x="16" y="9" width="1" height="1"/>
<rect x="21" y="9" width="1" height="1"/>
<rect x="15" y="10" width="1" height="1"/>
<rect x="17" y="10" width="2" height="1"/>
<rect x="22" y="10" width="1" height="1"/>
<rect x="14" y="11" width="1" height="1"/>
<rect x="16" y="11" width="2" height="1"/>
<rect x="13" y="12" width="1" height="1"/>
<rect x="16" y="12" width="1" height="1"/>
<rect x="10" y="13" width="3" height="1"/>
<rect x="15" y="13" width="1" height="1"/>
<rect x="9" y="14" width="1" height="1"/>
<rect x="11" y="15" width="3" height="1"/>
<rect x="22" y="15" width="1" height="1"/>
<rect x="7" y="16" width="1" height="1"/>
<rect x="9" y="16" width="3" height="1"/>
<rect x="6" y="17" width="1" height="1"/>
<rect x="9" y="17" width="2" height="1"/>
<rect x="21" y="17" width="1" height="1"/>
<rect x="6" y="18" width="1" height="1"/>
<rect x="9" y="18" width="2" height="1"/>
<rect x="21" y="18" width="1" height="1"/>
<rect x="6" y="19" width="1" height="1"/>
<rect x="21" y="19" width="1" height="1"/>
<rect x="6" y="20" width="1" height="1"/>
<rect x="21" y="20" width="1" height="1"/>
<rect x="6" y="21" width="1" height="1"/>
<rect x="21" y="21" width="1" height="1"/>
<rect x="21" y="22" width="1" height="1"/>
<rect x="20" y="23" width="1" height="1"/>
<rect x="20" y="24" width="1" height="1"/>
</g>
<rect x="20" y="8" width="1" height="1" fill="#a8c000"/>
<rect x="23" y="8" width="1" height="1" fill="#489c24"/>
<rect x="24" y="8" width="1" height="1" fill="#307824"/>
<g fill="#84a800">
<rect x="15" y="9" width="1" height="1"/>
<rect x="14" y="10" width="1" height="1"/>
<rect x="12" y="12" width="1" height="1"/>
</g>
<g fill="#a8cc00">
<rect x="17" y="9" width="1" height="1"/>
<rect x="14" y="12" width="1" height="1"/>
<rect x="10" y="14" width="3" height="1"/>
<rect x="18" y="14" width="2" height="1"/>
<rect x="9" y="15" width="1" height="1"/>
<rect x="12" y="16" width="1" height="1"/>
<rect x="11" y="17" width="1" height="1"/>
<rect x="16" y="17" width="1" height="1"/>
<rect x="14" y="21" width="1" height="1"/>
<rect x="13" y="22" width="1" height="1"/>
</g>
<g fill="#b4d800">
<rect x="18" y="9" width="1" height="1"/>
<rect x="16" y="10" width="1" height="1"/>
<rect x="19" y="10" width="1" height="1"/>
<rect x="18" y="11" width="2" height="1"/>
<rect x="18" y="12" width="4" height="1"/>
<rect x="14" y="13" width="1" height="1"/>
<rect x="17" y="13" width="1" height="1"/>
<rect x="19" y="13" width="2" height="1"/>
<rect x="16" y="14" width="1" height="1"/>
<rect x="20" y="14" width="1" height="1"/>
<rect x="14" y="15" width="1" height="1"/>
<rect x="17" y="15" width="2" height="1"/>
<rect x="13" y="16" width="1" height="1"/>
<rect x="15" y="16" width="1" height="1"/>
<rect x="18" y="16" width="1" height="1"/>
<rect x="14" y="17" width="2" height="1"/>
<rect x="11" y="18" width="3" height="1"/>
<rect x="15" y="18" width="1" height="1"/>
<rect x="13" y="19" width="1" height="1"/>
<rect x="16" y="19" width="2" height="1"/>
<rect x="10" y="20" width="1" height="1"/>
<rect x="16" y="20" width="1" height="1"/>
<rect x="13" y="21" width="1" height="1"/>
<rect x="16" y="21" width="1" height="1"/>
</g>
<g fill="#90c000">
<rect x="19" y="9" width="1" height="1"/>
<rect x="20" y="10" width="1" height="1"/>
<rect x="21" y="13" width="1" height="1"/>
<rect x="19" y="16" width="1" height="1"/>
<rect x="18" y="17" width="1" height="1"/>
<rect x="18" y="18" width="1" height="1"/>
<rect x="18" y="19" width="1" height="1"/>
<rect x="7" y="20" width="1" height="1"/>
<rect x="17" y="20" width="2" height="1"/>
<rect x="17" y="21" width="2" height="1"/>
<rect x="9" y="22" width="1" height="1"/>
<rect x="15" y="22" width="3" height="1"/>
<rect x="10" y="23" width="7" height="1"/>
<rect x="12" y="24" width="3" height="1"/>
</g>
<g fill="#78b400">
<rect x="20" y="9" width="1" height="1"/>
<rect x="10" y="24" width="1" height="1"/>
</g>
<g fill="#78a800">
<rect x="21" y="10" width="1" height="1"/>
<rect x="22" y="11" width="1" height="1"/>
<rect x="22" y="12" width="1" height="1"/>
<rect x="22" y="13" width="1" height="1"/>
<rect x="21" y="14" width="1" height="1"/>
<rect x="20" y="15" width="2" height="1"/>
<rect x="20" y="16" width="1" height="1"/>
<rect x="19" y="17" width="2" height="1"/>
<rect x="19" y="18" width="2" height="1"/>
<rect x="19" y="19" width="2" height="1"/>
<rect x="19" y="20" width="2" height="1"/>
<rect x="7" y="21" width="1" height="1"/>
<rect x="19" y="21" width="2" height="1"/>
<rect x="19" y="22" width="2" height="1"/>
<rect x="9" y="23" width="1" height="1"/>
<rect x="17" y="23" width="3" height="1"/>
<rect x="11" y="24" width="1" height="1"/>
<rect x="16" y="24" width="3" height="1"/>
<rect x="12" y="25" width="1" height="1"/>
<rect x="14" y="25" width="2" height="1"/>
<rect x="17" y="25" width="1" height="1"/>
</g>
<g fill="#b4cc00">
<rect x="15" y="11" width="1" height="1"/>
<rect x="21" y="11" width="1" height="1"/>
<rect x="17" y="12" width="1" height="1"/>
<rect x="13" y="13" width="1" height="1"/>
<rect x="16" y="13" width="1" height="1"/>
<rect x="18" y="13" width="1" height="1"/>
<rect x="13" y="14" width="3" height="1"/>
<rect x="17" y="14" width="1" height="1"/>
<rect x="8" y="15" width="1" height="1"/>
<rect x="16" y="15" width="1" height="1"/>
<rect x="8" y="16" width="1" height="1"/>
<rect x="14" y="16" width="1" height="1"/>
<rect x="16" y="16" width="2" height="1"/>
<rect x="7" y="17" width="2" height="1"/>
<rect x="12" y="17" width="1" height="1"/>
<rect x="17" y="17" width="1" height="1"/>
<rect x="7" y="18" width="2" height="1"/>
<rect x="14" y="18" width="1" height="1"/>
<rect x="16" y="18" width="2" height="1"/>
<rect x="7" y="19" width="2" height="1"/>
<rect x="11" y="19" width="2" height="1"/>
<rect x="14" y="19" width="2" height="1"/>
<rect x="8" y="20" width="2" height="1"/>
<rect x="11" y="20" width="5" height="1"/>
<rect x="8" y="21" width="5" height="1"/>
<rect x="15" y="21" width="1" height="1"/>
<rect x="10" y="22" width="3" height="1"/>
<rect x="14" y="22" width="1" height="1"/>
</g>
<g fill="#a8d800">
<rect x="20" y="11" width="1" height="1"/>
<rect x="15" y="15" width="1" height="1"/>
<rect x="13" y="17" width="1" height="1"/>
<rect x="9" y="19" width="2" height="1"/>
</g>
<g fill="#d8fc18">
<rect x="23" y="11" width="1" height="1"/>
<rect x="23" y="12" width="1" height="1"/>
<rect x="23" y="13" width="1" height="1"/>
<rect x="8" y="24" width="1" height="1"/>
</g>
<rect x="15" y="12" width="1" height="1" fill="#c0e400"/>
<rect x="8" y="14" width="1" height="1" fill="#e4fc18"/>
<g fill="#6ca800">
<rect x="22" y="14" width="1" height="1"/>
<rect x="18" y="22" width="1" height="1"/>
<rect x="8" y="23" width="1" height="1"/>
<rect x="9" y="24" width="1" height="1"/>
<rect x="15" y="24" width="1" height="1"/>
<rect x="19" y="24" width="1" height="1"/>
<rect x="11" y="25" width="1" height="1"/>
<rect x="13" y="25" width="1" height="1"/>
<rect x="16" y="25" width="1" height="1"/>
<rect x="18" y="25" width="1" height="1"/>
</g>
<rect x="23" y="14" width="1" height="1" fill="#f0fc24"/>
<rect x="7" y="15" width="1" height="1" fill="#c0d824"/>
<rect x="10" y="15" width="1" height="1" fill="#ccf00c"/>
<g fill="#9cc000">
<rect x="19" y="15" width="1" height="1"/>
<rect x="8" y="22" width="1" height="1"/>
</g>
<rect x="21" y="16" width="1" height="1" fill="#ccfc0c"/>
<g fill="#c0f00c">
<rect x="7" y="22" width="1" height="1"/>
<rect x="12" y="26" width="1" height="1"/>
<rect x="14" y="26" width="3" height="1"/>
</g>
<g fill="#d8fc0c">
<rect x="9" y="25" width="2" height="1"/>
<rect x="19" y="25" width="1" height="1"/>
</g>
<rect x="13" y="26" width="1" height="1" fill="#c0e40c"/>
</svg>